<?xml version="1.0" encoding="UTF-8" standalone="no"?>
<svg
   xmlns:dc="http://purl.org/dc/elements/1.1/"
   xmlns:cc="http://creativecommons.org/ns#"
   xmlns:rdf="http://www.w3.org/1999/02/22-rdf-syntax-ns#"
   xmlns:svg="http://www.w3.org/2000/svg"
   xmlns="http://www.w3.org/2000/svg"
   xmlns:sodipodi="http://sodipodi.sourceforge.net/DTD/sodipodi-0.dtd"
   xmlns:inkscape="http://www.inkscape.org/namespaces/inkscape"
   version="1.0"
   width="1200"
   height="1200"
   viewBox="0 0 12000 12000"
   preserveAspectRatio="xMidYMid meet"
   id="svg40"
   sodipodi:docname="nvidia (1).svg"
   inkscape:version="1.0.1 (3bc2e813f5, 2020-09-07)">
  <metadata
     id="metadata46">
    <rdf:RDF>
      <cc:Work
         rdf:about="">
        <dc:format>image/svg+xml</dc:format>
        <dc:type
           rdf:resource="http://purl.org/dc/dcmitype/StillImage" />
        <dc:title></dc:title>
      </cc:Work>
    </rdf:RDF>
  </metadata>
  <defs
     id="defs44" />
  <sodipodi:namedview
     pagecolor="#ffffff"
     bordercolor="#666666"
     borderopacity="1"
     objecttolerance="10"
     gridtolerance="10"
     guidetolerance="10"
     inkscape:pageopacity="0"
     inkscape:pageshadow="2"
     inkscape:window-width="1366"
     inkscape:window-height="768"
     id="namedview42"
     showgrid="false"
     inkscape:zoom="0.39563012"
     inkscape:cx="235.64549"
     inkscape:cy="711.42021"
     inkscape:window-x="0"
     inkscape:window-y="0"
     inkscape:window-maximized="0"
     inkscape:current-layer="svg40" />
  <g
     id="g891"
     transform="matrix(1.4949428,0,0,1.4949428,-3154.0266,-1698.5171)">
    <g
       id="layer101"
       fill="#010101"
       stroke="none">
      <path
         d="m 3978,8995 c -76,-21 -157,-66 -207,-116 -56,-55 -64,-66 -89,-115 -41,-83 -47,-135 -47,-434 1,-271 2,-289 24,-356 29,-89 90,-169 170,-223 33,-23 65,-41 71,-41 5,0 18,-4 28,-9 74,-38 233,-43 330,-11 85,28 129,55 187,115 52,54 83,107 109,188 26,79 28,77 -79,77 h -95 l -28,-62 c -53,-115 -122,-161 -243,-162 -97,0 -138,16 -199,76 -68,67 -82,145 -81,434 2,267 13,322 76,393 52,58 109,81 199,81 123,0 198,-48 248,-157 l 28,-63 h 95 c 107,0 105,-3 78,81 -21,67 -72,149 -125,200 -102,98 -301,144 -450,104 z"
         id="path2" />
      <path
         d="m 5166,8994 c -82,-22 -153,-63 -209,-118 -47,-47 -63,-73 -108,-171 -11,-24 -15,-131 -17,-527 l -3,-498 h 95 96 v 453 c 0,360 3,461 14,498 43,141 120,199 266,199 146,0 223,-57 269,-199 7,-23 11,-187 11,-492 v -459 h 100 100 v 436 c 0,264 -4,463 -11,507 -36,234 -228,390 -477,386 -42,-1 -99,-8 -126,-15 z"
         id="path4" />
      <path
         d="m 6108,8994 c -5,-4 -8,-302 -8,-661 v -655 l 303,5 c 316,4 326,5 421,54 89,45 179,177 205,301 17,80 14,532 -4,602 -24,95 -34,122 -61,164 -56,84 -119,133 -214,167 -60,21 -85,23 -350,27 -157,2 -288,0 -292,-4 z m 582,-195 c 72,-40 113,-91 135,-166 13,-45 16,-104 16,-299 0,-257 -5,-297 -48,-366 -54,-87 -144,-118 -350,-118 h -143 v 486 486 l 183,-4 c 132,-3 189,-9 207,-19 z"
         id="path6" />
      <path
         d="m 7181,8973 c 11,-27 39,-103 128,-350 21,-60 46,-128 56,-153 9,-25 26,-70 37,-100 11,-30 24,-64 28,-75 5,-11 20,-51 33,-90 14,-38 37,-104 52,-145 14,-41 30,-84 35,-95 4,-11 17,-45 28,-75 11,-30 33,-89 49,-130 l 29,-75 80,-3 80,-3 22,68 c 13,37 27,78 33,91 22,53 29,71 54,142 15,41 44,122 65,180 21,58 50,139 65,180 14,41 31,85 36,98 5,12 13,32 18,45 5,12 22,56 36,97 40,111 100,276 128,353 l 25,68 -105,-3 -105,-3 -40,-119 c -21,-66 -44,-126 -50,-133 -8,-10 -68,-13 -268,-13 h -257 l -16,43 c -8,23 -25,71 -37,107 -12,36 -26,77 -32,93 l -10,27 h -104 -104 z m 759,-415 c 0,-7 -16,-58 -36,-113 -19,-55 -48,-138 -64,-185 -68,-200 -92,-266 -100,-274 -5,-4 -13,7 -19,25 -15,51 -101,301 -111,324 -5,11 -19,49 -31,85 -12,36 -25,72 -29,80 -4,8 -10,27 -14,43 l -6,27 h 205 c 157,0 205,-3 205,-12 z"
         id="path8" />
      <path
         d="m 8072,7862 c -39,-37 -50,-88 -27,-135 20,-42 51,-60 107,-60 37,0 47,5 75,38 21,24 33,49 33,67 0,99 -118,155 -188,90 z m 142,-18 c 38,-39 36,-95 -4,-136 -27,-27 -36,-30 -71,-25 -50,7 -77,30 -85,73 -12,67 25,114 92,114 31,0 48,-6 68,-26 z"
         id="path10" />
      <path
         d="m 8101,7780 c 3,-57 17,-75 53,-66 29,7 43,41 26,61 -6,8 -9,23 -5,35 3,11 2,20 -3,20 -5,0 -12,-9 -15,-20 -3,-11 -12,-20 -21,-20 -9,0 -16,8 -16,20 0,11 -5,20 -10,20 -7,0 -10,-20 -9,-50 z m 67,-27 c -2,-10 -13,-19 -26,-21 -17,-3 -22,2 -22,17 0,16 6,21 26,21 19,0 25,-5 22,-17 z"
         id="path12" />
      <path
         d="m 9528,6623 c -75,-48 -59,-165 27,-193 45,-15 98,-4 127,27 34,37 33,113 -4,149 -34,35 -110,43 -150,17 z m 134,-33 c 46,-57 4,-144 -69,-144 -75,0 -111,96 -57,151 22,22 32,25 67,20 26,-4 49,-14 59,-27 z"
         id="path14" />
      <path
         d="m 9550,6530 c 0,-60 0,-60 29,-60 16,0 36,3 45,6 19,7 21,50 4,57 -10,3 -10,9 0,27 20,34 3,39 -23,7 l -22,-29 -7,26 c -11,46 -26,28 -26,-34 z m 54,-6 c 22,-9 20,-34 -3,-34 -19,0 -35,23 -24,34 8,7 8,7 27,0 z"
         id="path16" />
      <path
         d="m 2540,5960 v -640 l 368,1 c 439,1 540,9 637,54 58,27 126,74 157,109 34,38 88,145 101,200 6,23 12,227 14,479 l 4,437 h -171 -170 v -291 c 0,-433 -16,-535 -96,-615 -54,-55 -99,-64 -314,-64 h -170 v 485 485 h -180 -180 z"
         id="path18" />
      <path
         d="m 4292,6573 c -10,-25 -40,-117 -143,-438 -16,-49 -55,-171 -88,-270 -32,-99 -78,-241 -101,-315 -23,-74 -49,-154 -56,-178 -8,-23 -14,-45 -14,-48 0,-2 86,-3 191,-2 l 192,3 13,45 c 7,25 22,77 33,115 11,39 29,103 41,142 11,40 29,103 40,140 10,38 28,101 40,140 11,40 29,103 40,140 29,101 61,214 72,251 9,30 28,36 28,8 0,-7 9,-42 20,-77 11,-35 25,-82 31,-104 7,-22 19,-65 29,-95 10,-30 23,-75 30,-100 7,-25 20,-70 30,-100 10,-30 23,-75 30,-100 7,-25 19,-65 27,-90 14,-43 33,-107 72,-250 l 18,-65 186,-3 185,-2 -19,57 c -11,32 -59,180 -108,328 -48,149 -129,398 -180,555 -51,157 -97,297 -103,313 l -10,27 h -258 -258 z"
         id="path20" />
      <path
         d="m 5400,5960 v -640 l 178,2 177,3 v 635 635 l -177,3 -178,2 z"
         id="path22" />
      <path
         d="m 5980,5960 v -643 l 373,6 c 413,7 455,12 577,70 57,28 73,40 136,104 76,77 112,157 139,308 36,198 9,411 -73,573 -24,46 -118,134 -173,160 -108,52 -127,54 -566,59 l -413,5 z m 645,359 c 97,-25 166,-77 204,-153 47,-96 51,-281 6,-381 -60,-136 -161,-185 -380,-185 h -115 v 365 365 h 123 c 67,0 140,-5 162,-11 z"
         id="path24" />
      <path
         d="m 7393,5963 2,-638 178,-3 177,-2 v 640 640 h -180 -180 z"
         id="path26" />
      <path
         d="m 7920,6570 c 5,-17 16,-44 24,-62 9,-17 16,-35 16,-40 0,-4 9,-27 19,-51 10,-23 42,-103 71,-177 29,-74 61,-154 71,-177 10,-24 19,-49 19,-56 0,-7 4,-17 9,-23 5,-5 18,-35 30,-66 11,-32 31,-84 42,-115 12,-32 25,-62 30,-68 5,-5 9,-15 9,-22 0,-7 9,-32 19,-56 18,-41 113,-285 125,-319 5,-17 26,-18 246,-18 h 240 l 17,38 c 8,20 20,48 26,62 5,14 13,33 18,42 5,10 9,23 9,28 0,6 9,30 20,52 11,23 20,46 20,50 0,5 9,28 20,50 11,23 20,46 20,50 0,5 9,28 20,50 11,23 20,46 20,50 0,5 9,28 20,50 11,23 20,45 20,50 0,5 9,27 19,51 14,32 155,383 258,645 4,9 -37,12 -185,12 h -190 l -10,-27 c -6,-16 -23,-64 -37,-108 -15,-44 -32,-83 -38,-87 -7,-4 -143,-8 -303,-8 h -292 l -10,28 c -5,15 -20,54 -32,87 -12,33 -27,72 -32,88 l -10,27 h -174 -173 z m 940,-425 c 0,-13 -29,-102 -50,-150 -5,-11 -27,-72 -50,-135 -23,-63 -45,-124 -50,-135 -5,-11 -19,-49 -31,-85 -27,-83 -33,-89 -49,-48 -6,18 -17,44 -22,58 -6,14 -14,34 -18,45 -86,223 -170,449 -170,457 0,5 99,8 220,8 186,0 220,-2 220,-15 z"
         id="path28" />
    </g>
    <g
       id="layer102"
       fill="#8ec63f"
       stroke="none">
      <path
         d="m 4920,4508 v -193 l 228,-1 c 125,0 265,-6 312,-12 47,-7 119,-17 160,-23 125,-17 238,-39 455,-89 50,-11 106,-24 125,-30 256,-72 337,-97 465,-140 83,-28 159,-54 170,-59 11,-5 52,-21 90,-36 39,-15 85,-33 103,-41 17,-8 49,-21 70,-30 204,-87 466,-235 609,-345 l 61,-47 -26,-24 c -36,-32 -145,-98 -327,-198 -69,-38 -202,-115 -228,-133 -12,-8 -20,-9 -25,-2 -4,6 -32,30 -62,55 -30,25 -57,47 -60,50 -3,3 -30,25 -60,50 -30,25 -57,47 -60,50 -3,3 -21,17 -40,30 -19,13 -37,27 -40,30 -3,4 -36,30 -75,58 -38,28 -75,55 -80,60 -27,22 -255,171 -295,193 -25,13 -47,26 -50,30 -8,9 -242,124 -290,143 -25,10 -58,24 -75,31 -111,51 -330,108 -550,144 -94,15 -315,24 -415,16 l -90,-7 v -140 c 0,-128 1,-139 18,-134 42,12 255,17 342,7 123,-13 148,-19 295,-62 231,-67 555,-253 835,-478 173,-140 424,-380 507,-487 l 32,-40 -41,-50 c -97,-116 -230,-242 -408,-385 -72,-58 -266,-189 -279,-189 -6,0 -11,-3 -11,-7 0,-5 -10,-13 -23,-19 -12,-6 -60,-31 -107,-56 -47,-25 -114,-57 -150,-73 -36,-15 -78,-33 -95,-41 -73,-31 -227,-75 -380,-109 -89,-20 -257,-35 -387,-35 H 4920 V 1515 1290 H 6535 8150 V 2995 4700 H 6535 4920 Z"
         id="path31" />
      <path
         d="m 4785,4288 c -159,-29 -351,-83 -440,-122 -16,-8 -59,-26 -95,-42 -314,-137 -648,-421 -901,-764 -113,-154 -228,-350 -300,-510 -70,-158 -73,-138 27,-222 555,-467 1118,-760 1629,-847 39,-7 94,-17 124,-22 30,-5 60,-9 68,-9 10,0 13,28 13,125 v 125 h -45 c -24,0 -66,4 -92,9 -26,5 -77,15 -113,21 -36,7 -76,15 -90,20 -14,4 -45,13 -70,20 -25,7 -54,16 -65,20 -11,5 -58,23 -105,41 -89,35 -188,83 -280,138 -61,37 -142,91 -150,101 -3,3 -20,17 -39,30 -95,66 -334,306 -349,351 -8,21 36,133 109,276 201,397 477,697 789,857 41,21 80,42 85,46 33,24 273,93 363,105 l 52,7 v 129 129 l -37,-1 c -21,-1 -60,-6 -88,-11 z"
         id="path33" />
      <path
         d="m 4870,3743 c -31,-5 -148,-41 -175,-53 -11,-5 -47,-21 -79,-35 -137,-59 -330,-214 -435,-350 -101,-130 -204,-316 -252,-451 l -20,-59 53,-48 c 191,-175 419,-302 693,-387 31,-9 230,-50 246,-50 5,0 9,58 9,129 v 128 l -92,6 c -51,3 -109,11 -128,17 -42,14 -163,71 -170,80 -3,4 -16,13 -28,19 -53,28 -172,139 -172,160 1,30 82,204 135,290 56,91 190,230 275,285 65,43 151,86 170,86 6,0 10,46 10,120 0,66 -3,119 -7,119 -5,-1 -19,-4 -33,-6 z"
         id="path35" />
      <path
         d="m 5055,3540 c -33,-5 -76,-13 -95,-17 l -35,-9 -3,-467 -2,-467 42,6 c 24,3 69,15 100,26 149,50 210,110 361,353 92,147 71,141 173,55 49,-41 110,-92 135,-115 52,-46 197,-167 212,-177 25,-16 -129,-162 -263,-250 -114,-75 -245,-129 -403,-167 -26,-6 -117,-11 -202,-11 h -155 v -149 -149 l 63,-4 c 79,-5 250,9 345,28 310,62 635,247 900,513 180,179 179,178 134,227 -9,10 -37,44 -62,74 -58,71 -289,303 -360,360 -30,25 -57,47 -60,51 -3,3 -52,37 -110,75 -93,62 -173,105 -290,158 -106,47 -304,73 -425,56 z"
         id="path37" />
    </g>
  </g>
</svg>
